<svg width="61" height="32" viewBox="0 0 61 32" fill="none" xmlns="http://www.w3.org/2000/svg">
<path d="M1.75 16.3496C2.7165 16.3496 3.5 15.5661 3.5 14.5996C3.5 13.6331 2.7165 12.8496 1.75 12.8496C0.783502 12.8496 0 13.6331 0 14.5996C0 15.5661 0.783502 16.3496 1.75 16.3496Z" fill="#FF8B37"/>
<g filter="url(#filter0_d_9668_12358)">
<path d="M3.5198 22.3112C2.2094 21.0344 1.5542 19.4216 1.5542 17.4728C1.5542 15.524 2.2094 13.9196 3.5198 12.6596C4.847 11.3828 6.6026 10.7444 8.7866 10.7444C10.5842 10.7444 12.3482 11.3828 14.0786 12.6596L12.365 15.4064C11.4074 14.5496 10.2734 14.1212 8.963 14.1212C7.8542 14.1212 6.9638 14.432 6.2918 15.0536C5.6366 15.6584 5.309 16.4648 5.309 17.4728C5.309 18.4808 5.6366 19.2956 6.2918 19.9172C6.9638 20.522 7.8542 20.8244 8.963 20.8244C10.2734 20.8244 11.4074 20.396 12.365 19.5392L14.0786 22.286C12.3482 23.5628 10.5842 24.2012 8.7866 24.2012C6.6026 24.2012 4.847 23.5712 3.5198 22.3112Z" fill="white"/>
</g>
<path d="M4.1999 14.9496C5.7463 14.9496 6.9999 13.696 6.9999 12.1496C6.9999 10.6032 5.7463 9.34961 4.1999 9.34961C2.6535 9.34961 1.3999 10.6032 1.3999 12.1496C1.3999 13.696 2.6535 14.9496 4.1999 14.9496Z" fill="#55D087"/>
<g filter="url(#filter1_d_9668_12358)">
<path d="M16.4143 23.9492V5.72962H20.1691V12.7856C21.1435 11.4248 22.4791 10.7444 24.1759 10.7444C27.2503 10.7444 28.7875 12.8024 28.7875 16.9184V23.9492H25.0327V16.994C25.0327 14.894 24.2347 13.844 22.6387 13.844C21.8155 13.844 21.1939 14.138 20.7739 14.726C20.3707 15.2972 20.1691 16.0616 20.1691 17.0192V23.9492H16.4143ZM33.1536 22.3364C31.7592 21.0596 31.062 19.4384 31.062 17.4728C31.062 15.5072 31.7592 13.8944 33.1536 12.6344C34.5648 11.3744 36.2364 10.7444 38.1684 10.7444C40.1004 10.7444 41.7636 11.3828 43.158 12.6596C44.5692 13.9196 45.2748 15.524 45.2748 17.4728C45.2748 19.4384 44.5692 21.0596 43.158 22.3364C41.7636 23.5964 40.1004 24.2264 38.1684 24.2264C36.2364 24.2264 34.5648 23.5964 33.1536 22.3364ZM34.716 17.4728C34.716 18.4808 35.052 19.3208 35.724 19.9928C36.4128 20.6648 37.2276 21.0008 38.1684 21.0008C39.126 21.0008 39.9408 20.6648 40.6128 19.9928C41.2848 19.304 41.6208 18.464 41.6208 17.4728C41.6208 16.4816 41.2848 15.65 40.6128 14.978C39.9408 14.306 39.126 13.97 38.1684 13.97C37.2276 13.97 36.4128 14.306 35.724 14.978C35.052 15.65 34.716 16.4816 34.716 17.4728ZM59.8182 20.9504V23.9492H46.689V21.7568L53.9466 13.97H47.0418V11.0216H59.3898V13.2392L52.1574 20.9504H59.8182Z" fill="white"/>
</g>
<defs>
<filter id="filter0_d_9668_12358" x="1.5542" y="10.7441" width="12.5244" height="14.157" filterUnits="userSpaceOnUse" color-interpolation-filters="sRGB">
<feFlood flood-opacity="0" result="BackgroundImageFix"/>
<feColorMatrix in="SourceAlpha" type="matrix" values="0 0 0 0 0 0 0 0 0 0 0 0 0 0 0 0 0 0 127 0" result="hardAlpha"/>
<feOffset dy="0.7"/>
<feComposite in2="hardAlpha" operator="out"/>
<feColorMatrix type="matrix" values="0 0 0 0 0.147233 0 0 0 0 0.143432 0 0 0 0 0.143432 0 0 0 1 0"/>
<feBlend mode="normal" in2="BackgroundImageFix" result="effect1_dropShadow_9668_12358"/>
<feBlend mode="normal" in="SourceGraphic" in2="effect1_dropShadow_9668_12358" result="shape"/>
</filter>
<filter id="filter1_d_9668_12358" x="16.4143" y="5.73047" width="43.4038" height="19.1961" filterUnits="userSpaceOnUse" color-interpolation-filters="sRGB">
<feFlood flood-opacity="0" result="BackgroundImageFix"/>
<feColorMatrix in="SourceAlpha" type="matrix" values="0 0 0 0 0 0 0 0 0 0 0 0 0 0 0 0 0 0 127 0" result="hardAlpha"/>
<feOffset dy="0.7"/>
<feComposite in2="hardAlpha" operator="out"/>
<feColorMatrix type="matrix" values="0 0 0 0 0.147233 0 0 0 0 0.143432 0 0 0 0 0.143432 0 0 0 1 0"/>
<feBlend mode="normal" in2="BackgroundImageFix" result="effect1_dropShadow_9668_12358"/>
<feBlend mode="normal" in="SourceGraphic" in2="effect1_dropShadow_9668_12358" result="shape"/>
</filter>
</defs>
</svg>
