<svg width="850" height="280" viewBox="0 0 850 280" fill="none" xmlns="http://www.w3.org/2000/svg">
<path d="M184.337 113.543C183.539 115.753 182.311 117.718 180.715 119.314C177.952 122.077 174.084 123.796 169.847 123.796H77.7487C73.5121 123.796 69.644 125.516 66.881 128.279C64.1181 131.042 62.3989 134.91 62.3989 139.146V169.846C62.3989 178.319 69.2756 185.195 77.7487 185.195H123.798V226.64C120.053 232.35 121.445 239.226 121.445 246.594H62.3989C28.5067 246.594 1 219.088 1 185.195V123.796C1 106.85 7.87668 91.5006 18.9899 80.3874C30.1031 69.2742 45.4528 62.3976 62.3989 62.3976H123.798C127.298 62.3976 130.736 62.7045 134.051 63.2571H134.113C135.832 63.5641 137.49 63.9325 139.148 64.3623C149.954 67.1253 159.593 72.774 167.207 80.3874C174.82 88.0009 180.469 97.6405 183.232 108.447C183.662 110.105 184.03 111.824 184.337 113.543Z" fill="url(#paint0_linear_0_1)" stroke="#FEDBC3" stroke-width="1.65939" stroke-miterlimit="10"/>
<path d="M246.594 62.3989V123.798C246.594 140.744 239.718 156.094 228.604 167.207C217.491 178.32 202.141 185.197 185.195 185.197V225.904C182.862 222.404 179.854 219.335 176.415 216.817C170.337 212.335 162.846 209.756 154.741 209.756C146.637 209.756 138.901 212.458 132.761 217.063C129.199 219.703 126.191 222.957 123.796 226.641V123.798H169.846C174.082 123.798 177.95 122.079 180.713 119.316C182.31 117.719 183.538 115.755 184.336 113.544C184.888 111.948 185.195 110.229 185.195 108.448V77.7486C185.195 73.5121 183.476 69.644 180.713 66.881C177.95 64.1181 174.082 62.3989 169.846 62.3989H62.3975C62.3975 45.4528 69.2741 30.1031 80.3873 18.9899C91.5005 7.87668 106.85 1 123.796 1H185.195C202.141 1 217.491 7.87668 228.604 18.9899C239.718 30.1031 246.594 45.4528 246.594 62.3989Z" fill="url(#paint1_linear_0_1)" stroke="#FEDBC3" stroke-width="1.65939" stroke-miterlimit="10"/>
<path d="M191.337 238.41C191.337 246.085 189.004 253.207 184.952 259.101C178.382 268.802 167.207 275.249 154.498 275.249C141.788 275.249 130.061 268.495 123.553 258.364C119.807 252.654 117.658 245.778 117.658 238.41C117.658 231.042 119.807 224.165 123.553 218.455C125.947 214.771 128.956 211.517 132.517 208.877C138.657 204.272 146.27 201.57 154.498 201.57C162.725 201.57 170.093 204.149 176.172 208.631C179.61 211.149 182.618 214.219 184.952 217.718C189.004 223.613 191.337 230.735 191.337 238.41Z" fill="url(#paint2_linear_0_1)" stroke="#FEDBC3" stroke-width="1.65939" stroke-miterlimit="10"/>
<g filter="url(#filter0_b_0_1)">
<path d="M849.597 190.182V220.607H716.393V198.363L790.026 119.361H719.972V89.4476H845.251V111.947L771.873 190.182H849.597Z" fill="url(#paint3_linear_0_1)"/>
<path d="M569.468 154.899C569.468 113.991 603.472 86.6346 641.567 86.6346C679.662 86.6346 713.666 114.247 713.666 154.899C713.666 195.806 679.662 223.419 641.567 223.419C603.472 223.419 569.468 196.062 569.468 154.899ZM606.54 154.899C606.54 175.608 622.903 190.693 641.567 190.693C660.742 190.693 676.594 175.352 676.594 154.899C676.594 134.701 660.742 119.361 641.567 119.361C622.903 119.361 606.54 134.445 606.54 154.899Z" fill="url(#paint4_linear_0_1)"/>
<path d="M432.479 220.607V35.7566H470.574V107.344C481.568 92.0042 495.118 86.6351 511.225 86.6351C548.042 86.6351 558.013 115.782 558.013 149.274V220.607H519.918V150.041C519.918 131.889 513.271 118.083 495.63 118.083C477.988 118.083 470.574 132.145 470.574 150.297V220.607H432.479Z" fill="url(#paint5_linear_0_1)"/>
<path d="M294.594 154.899C294.594 116.037 322.974 86.6346 367.972 86.6346C381.522 86.6346 399.164 89.447 421.663 106.066L404.277 133.934C391.494 122.429 376.409 120.895 369.762 120.895C347.263 120.895 332.689 134.701 332.689 154.899C332.689 175.097 347.263 188.903 369.762 188.903C376.409 188.903 391.494 187.369 404.277 175.864L421.663 203.732C399.164 220.35 381.522 223.163 367.972 223.163C322.974 223.163 294.594 193.761 294.594 154.899Z" fill="url(#paint6_linear_0_1)"/>
</g>
<defs>
<filter id="filter0_b_0_1" x="-76.1431" y="-369.737" width="1296.48" height="1019.53" filterUnits="userSpaceOnUse" color-interpolation-filters="sRGB">
<feFlood flood-opacity="0" result="BackgroundImageFix"/>
<feGaussianBlur in="BackgroundImageFix" stdDeviation="185.369"/>
<feComposite in2="SourceAlpha" operator="in" result="effect1_backgroundBlur_0_1"/>
<feBlend mode="normal" in="SourceGraphic" in2="effect1_backgroundBlur_0_1" result="shape"/>
</filter>
<linearGradient id="paint0_linear_0_1" x1="1" y1="62.3976" x2="561.32" y2="243.434" gradientUnits="userSpaceOnUse">
<stop stop-color="#2A0926"/>
<stop offset="1" stop-color="#68135D"/>
</linearGradient>
<linearGradient id="paint1_linear_0_1" x1="62.3975" y1="1" x2="643.319" y2="154.937" gradientUnits="userSpaceOnUse">
<stop stop-color="#2A0926"/>
<stop offset="1" stop-color="#68135D"/>
</linearGradient>
<linearGradient id="paint2_linear_0_1" x1="117.658" y1="201.57" x2="342.637" y2="274.601" gradientUnits="userSpaceOnUse">
<stop stop-color="#2A0926"/>
<stop offset="1" stop-color="#68135D"/>
</linearGradient>
<linearGradient id="paint3_linear_0_1" x1="716.393" y1="89.4476" x2="1121.92" y2="223.139" gradientUnits="userSpaceOnUse">
<stop stop-color="#2A0926"/>
<stop offset="1" stop-color="#68135D"/>
</linearGradient>
<linearGradient id="paint4_linear_0_1" x1="569.468" y1="86.6346" x2="1005.15" y2="235.729" gradientUnits="userSpaceOnUse">
<stop stop-color="#2A0926"/>
<stop offset="1" stop-color="#68135D"/>
</linearGradient>
<linearGradient id="paint5_linear_0_1" x1="432.479" y1="35.7566" x2="836.554" y2="124.834" gradientUnits="userSpaceOnUse">
<stop stop-color="#2A0926"/>
<stop offset="1" stop-color="#68135D"/>
</linearGradient>
<linearGradient id="paint6_linear_0_1" x1="294.594" y1="86.6346" x2="687.611" y2="205.372" gradientUnits="userSpaceOnUse">
<stop stop-color="#2A0926"/>
<stop offset="1" stop-color="#68135D"/>
</linearGradient>
</defs>
</svg>
